Rampart.2011.BDRip.XVID.AC3.HQ.Hive-CM8


Set in 1999 Los Angeles, veteran police officer Dave Brown
 the last of the renegade cops, works to take care of his
 family, and struggles for his own survival

 
http://www.imdb.com/title/tt1640548/



General
 Complete name: Rampart.2011.BDRip.XVID.AC3.HQ.Hive-CM8.avi
 Format: AVI
 Format/Info: Audio Video Interleave
 File size: 1.58 GiB
 Duration: 1h 47mn
 Overall bit rate: 2 093 Kbps
 Writing application: Nandub v1.0rc2
 Writing library: Nandub build 1853/release

 Video
 ID: 0
 Format: MPEG-4 Visual
 Format profile: Advanced Simple@L5
 Format settings, BVOP: 1
 Format settings, QPel: Yes
 Format settings, GMC: No warppoints
 Format settings, Matrix: Default (H.263)
 Muxing mode: Packed bitstream
 Codec ID: XVID
 Codec ID/Hint: XviD
 Duration: 1h 47mn
 Bit rate: 1 699 Kbps
 Width: 720 pixels
 Height: 304 pixels
 Display aspect ratio: 2.35:1
 Frame rate: 23.976 fps
 Color space: YUV
 Chroma subsampling: 4:2:0
 Bit depth: 8 bits
 Scan type: Progressive
 Compression mode: Lossy
 Bits/(Pixel*Frame): 0.324
 Stream size: 1.28 GiB (81%)
 Writing library: XviD 1.2.1 (UTC 2008-12-04)

 Audio
 ID: 1
 Format: AC-3
 Format/Info: Audio Coding 3
 Mode extension: CM (complete main)
 Codec ID: 2000
 Duration: 1h 47mn
 Bit rate mode: Constant
 Bit rate: 384 Kbps
 Channel(s): 6 channels
 Channel positions: Front: L C R, Side: L R, LFE
 Sampling rate: 48.0 KHz
 Bit depth: 16 bits
 Compression mode: Lossy
 Stream size: 296 MiB (18%)
 Alignment: Split accross interleaves
 Interleave, duration: 42 ms (1.00 video frame)
 Interleave, preload duration: 500 ms

screeny:

 
http://img710.imageshack.us/img710/4816/rararara.png 
http://img198.imageshack.us/img198/848/rarararara.png 
http://img401.imageshack.us/img401/3310/18920722.png 
http://img337.imageshack.us/img337/9370/rarau.png